<svg xmlns="http://www.w3.org/2000/svg" width="60" height="60"><path d="M 30 0 C 46.569 0 60 13.431 60 30 C 60 46.569 46.569 60 30 60 C 13.431 60 0 46.569 0 30 C 0 13.431 13.431 0 30 0 Z" fill="hsl(131, 72%, 51%)"></path><path d="M 29.746 50 C 29.206 50.001 28.675 49.859 28.207 49.589 L 23.31 46.694 C 22.579 46.285 22.936 46.14 23.177 46.056 C 24.153 45.718 24.35 45.64 25.392 45.049 C 25.5 44.988 25.644 45.012 25.756 45.077 L 29.518 47.309 C 29.655 47.385 29.847 47.385 29.973 47.309 L 44.643 38.849 C 44.782 38.765 44.867 38.615 44.866 38.452 L 44.866 21.536 C 44.866 21.371 44.779 21.216 44.639 21.132 L 29.975 12.679 C 29.835 12.6 29.663 12.6 29.523 12.679 L 14.863 21.134 C 14.721 21.218 14.633 21.37 14.631 21.536 L 14.631 38.452 C 14.631 38.615 14.72 38.765 14.862 38.844 L 18.881 41.164 C 21.061 42.253 22.396 40.97 22.396 39.681 L 22.396 22.98 C 22.396 22.743 22.586 22.557 22.822 22.557 L 24.682 22.557 C 24.915 22.557 25.107 22.743 25.107 22.98 L 25.107 39.681 C 25.107 42.589 23.523 44.257 20.764 44.257 C 19.916 44.257 19.249 44.257 17.385 43.339 L 13.538 41.126 C 12.586 40.572 12.001 39.554 12 38.452 L 12 21.536 C 12 20.435 12.586 19.417 13.538 18.864 L 28.208 10.394 C 29.136 9.869 30.37 9.869 31.291 10.394 L 45.959 18.864 C 46.911 19.417 47.498 20.434 47.5 21.536 L 47.5 38.452 C 47.497 39.554 46.911 40.572 45.959 41.127 L 31.291 49.589 C 30.821 49.86 30.288 50.002 29.746 50 Z M 34.277 38.346 C 27.858 38.346 26.513 35.402 26.513 32.932 C 26.513 32.697 26.702 32.51 26.937 32.51 L 28.834 32.51 C 29.044 32.509 29.223 32.661 29.255 32.869 C 29.542 34.799 30.395 35.772 34.277 35.772 C 37.368 35.772 38.684 35.073 38.684 33.435 C 38.684 32.49 38.31 31.79 33.508 31.319 C 29.494 30.923 27.011 30.037 27.011 26.828 C 27.011 23.871 29.506 22.107 33.689 22.107 C 38.389 22.107 40.714 23.737 41.009 27.233 C 41.019 27.353 40.978 27.471 40.897 27.56 C 40.816 27.645 40.704 27.694 40.586 27.695 L 38.682 27.695 C 38.484 27.694 38.313 27.557 38.27 27.364 C 37.814 25.334 36.703 24.685 33.689 24.685 C 30.315 24.685 29.923 25.86 29.923 26.74 C 29.923 27.806 30.385 28.116 34.941 28.718 C 39.449 29.314 41.591 30.157 41.591 33.323 C 41.591 36.517 38.926 38.346 34.277 38.346 Z" fill="hsl(0, 0%, 100%)"></path></svg>