<svg xmlns="http://www.w3.org/2000/svg" width="60" height="60"><path d="M 30 0 C 46.569 0 60 13.431 60 30 C 60 46.569 46.569 60 30 60 C 13.431 60 0 46.569 0 30 C 0 13.431 13.431 0 30 0 Z" fill="rgba(88, 86, 214, 1.00)"></path><path d="M 9.321 40.276 C 9.225 40.276 9.135 40.233 9.074 40.159 C 9.013 40.086 8.988 39.989 9.006 39.895 L 12.038 24.34 C 12.067 24.19 12.199 24.081 12.353 24.081 L 18.886 24.081 C 20.94 24.081 22.468 24.637 23.429 25.734 C 24.395 26.836 24.692 28.378 24.315 30.314 C 24.161 31.104 23.897 31.837 23.529 32.492 C 23.161 33.149 22.675 33.757 22.083 34.299 C 21.375 34.96 20.574 35.439 19.704 35.721 C 18.847 35.999 17.748 36.14 16.435 36.14 L 13.79 36.14 L 13.034 40.017 C 13.004 40.168 12.872 40.276 12.719 40.276 Z M 16.07 33.045 C 17.361 33.045 18.324 32.808 18.935 32.34 C 19.538 31.877 19.955 31.074 20.173 29.954 C 20.377 28.908 20.299 28.177 19.943 27.783 C 19.578 27.38 18.79 27.176 17.6 27.176 L 15.536 27.176 L 14.392 33.045 Z M 31.925 36.195 C 31.829 36.195 31.739 36.152 31.678 36.079 C 31.617 36.005 31.592 35.908 31.61 35.814 L 32.951 28.931 C 33.079 28.277 33.047 27.807 32.862 27.609 C 32.749 27.487 32.41 27.284 31.406 27.284 L 28.977 27.284 L 27.291 35.936 C 27.262 36.086 27.129 36.195 26.976 36.195 L 23.605 36.195 C 23.509 36.195 23.419 36.152 23.358 36.079 C 23.297 36.005 23.272 35.908 23.289 35.814 L 26.321 20.259 C 26.351 20.109 26.483 20 26.636 20 L 30.007 20 C 30.103 20 30.193 20.043 30.254 20.117 C 30.315 20.19 30.34 20.287 30.322 20.381 L 29.591 24.136 L 32.204 24.136 C 34.196 24.136 35.545 24.485 36.332 25.206 C 37.133 25.94 37.383 27.115 37.075 28.697 L 35.665 35.936 C 35.635 36.087 35.503 36.196 35.349 36.196 L 31.925 36.196 Z M 35.848 40.276 C 35.752 40.276 35.662 40.233 35.601 40.159 C 35.54 40.086 35.515 39.989 35.532 39.895 L 38.564 24.34 C 38.594 24.19 38.726 24.081 38.879 24.081 L 45.413 24.081 C 47.466 24.081 48.995 24.637 49.955 25.734 C 50.921 26.836 51.219 28.378 50.842 30.314 C 50.688 31.104 50.424 31.837 50.056 32.492 C 49.688 33.149 49.201 33.757 48.61 34.299 C 47.902 34.96 47.101 35.439 46.231 35.721 C 45.374 35.999 44.274 36.14 42.962 36.14 L 40.316 36.14 L 39.561 40.017 C 39.531 40.168 39.399 40.276 39.245 40.276 Z M 42.596 33.045 C 43.888 33.045 44.851 32.808 45.461 32.34 C 46.064 31.877 46.481 31.074 46.7 29.954 C 46.903 28.908 46.826 28.177 46.469 27.783 C 46.104 27.38 45.316 27.176 44.126 27.176 L 42.063 27.176 L 40.919 33.045 Z" fill="rgb(255,255,255)"></path></svg>