<svg xmlns="http://www.w3.org/2000/svg" width="60" height="60"><path d="M 30 0 C 46.569 0 60 13.431 60 30 C 60 46.569 46.569 60 30 60 C 13.431 60 0 46.569 0 30 C 0 13.431 13.431 0 30 0 Z" fill="hsl(0, 0%, 100%)"></path><g transform="translate(9 9)"><path d="M 32.357 10.709 L 36.158 10.709 C 39.106 10.709 40.496 12.89 41.223 15.789 C 42.236 19.816 42.281 22.834 41.223 25.973 C 40.199 29.021 39.103 31.053 36.158 31.053 L 20.975 31.053 L 20.975 32.325 L 31.093 32.325 L 31.093 36.145 C 31.093 39.036 28.579 40.505 26.028 41.236 C 24.203 41.76 22.551 41.996 20.975 42 L 20.899 42 C 19.189 41.996 17.566 41.718 15.91 41.236 C 13.231 40.457 10.844 38.86 10.844 36.145 L 10.844 26.603 C 10.844 23.858 13.138 21.512 15.91 21.512 L 26.028 21.512 C 29.4 21.512 32.357 18.608 32.357 15.159 Z M 24.764 36.775 C 24.764 37.831 25.619 38.69 26.665 38.69 C 27.716 38.69 28.566 37.831 28.566 36.775 C 28.566 35.722 27.716 34.871 26.665 34.871 C 25.619 34.871 24.764 35.722 24.764 36.775 Z" fill="rgb(247,205,16)"></path><path d="M 20.75 0 L 20.895 0 C 22.583 0 24.337 0.131 26.028 0.41 C 28.776 0.862 31.093 2.902 31.093 5.617 L 31.093 15.159 C 31.093 17.957 28.845 20.25 26.028 20.25 L 15.91 20.25 C 12.474 20.25 9.581 23.167 9.581 26.475 L 9.581 31.053 L 6.098 31.053 C 3.153 31.053 1.433 28.939 0.713 25.973 C -0.258 21.988 -0.217 19.606 0.713 15.789 C 1.52 12.46 4.097 10.709 7.042 10.709 L 20.975 10.709 L 20.975 9.436 L 10.844 9.436 L 10.844 5.617 C 10.844 2.726 11.622 1.158 15.91 0.409 C 17.364 0.154 19.018 0.008 20.75 0 Z M 13.37 4.988 C 13.37 6.04 14.221 6.89 15.272 6.89 C 16.318 6.89 17.172 6.04 17.172 4.987 C 17.172 3.931 16.318 3.071 15.272 3.071 C 14.221 3.071 13.37 3.931 13.37 4.988 Z" fill="rgb(0,170,255)"></path></g></svg>