<svg xmlns="http://www.w3.org/2000/svg" width="60" height="60"><path d="M 30 0 C 46.569 0 60 13.431 60 30 C 60 46.569 46.569 60 30 60 C 13.431 60 0 46.569 0 30 C 0 13.431 13.431 0 30 0 Z" fill="rgba(255, 1, 5, 1.00)"></path><path d="M 22.901 12.481 L 37.099 12.481 L 42.859 15.256 L 37.099 18.031 L 22.901 18.031 L 17.14 15.256 Z M 19.363 27.922 L 25.75 41.301 L 12.976 23.994 Z M 36.694 19.512 L 38.936 26.684 L 21.065 26.684 L 23.307 19.512 Z M 40.637 27.922 L 47.024 23.994 L 34.25 41.301 Z M 21.229 28.165 L 38.771 28.165 L 30 46.54 Z M 44.389 16.189 L 48.814 21.116 L 40.465 26.249 L 38.245 19.149 Z M 15.611 16.189 L 21.755 19.149 L 19.536 26.249 L 11.186 21.115 Z M 30 49.684 L 50.665 21.687 C 50.665 21.686 50.666 21.684 50.667 21.683 L 51 21.233 L 45.207 14.783 C 45.193 14.767 45.176 14.755 45.161 14.741 C 45.148 14.729 45.135 14.715 45.12 14.704 C 45.07 14.662 45.015 14.626 44.957 14.598 L 37.664 11.084 C 37.549 11.029 37.423 11 37.295 11 L 22.705 11 C 22.577 11 22.451 11.029 22.336 11.084 L 15.044 14.598 C 14.985 14.626 14.93 14.662 14.88 14.704 C 14.866 14.716 14.853 14.729 14.84 14.741 C 14.825 14.756 14.808 14.767 14.794 14.783 L 9 21.232 L 9.333 21.683 L 9.335 21.687 Z" fill="rgb(255,255,255)"></path></svg>