<svg xmlns="http://www.w3.org/2000/svg" width="60" height="60"><path d="M 0 30 C 0 13.431 13.431 0 30 0 C 46.569 0 60 13.431 60 30 C 60 46.569 46.569 60 30 60 C 13.431 60 0 46.569 0 30 Z" fill="#AA21A9"></path><path d="M 47.085 20.4 C 49.249 20.4 51 22.154 51 24.322 L 51 37.395 C 51 39.563 49.249 41.317 47.085 41.317 L 34.825 41.317 L 36.508 45.446 L 29.107 41.317 L 12.915 41.317 C 10.751 41.317 9 39.563 9 37.395 L 9 24.322 C 8.983 22.172 10.734 20.4 12.898 20.4 Z M 47.57 34.87 C 48.458 33.399 48.902 31.791 48.902 30.03 C 48.919 28.696 48.628 27.584 48.082 26.66 C 47.468 25.582 46.562 24.932 45.35 24.676 C 45.047 24.61 44.738 24.575 44.428 24.573 C 42.789 24.573 41.458 25.428 40.416 27.139 C 39.528 28.593 39.085 30.201 39.085 31.962 C 39.085 33.279 39.358 34.408 39.904 35.349 C 40.519 36.427 41.423 37.076 42.636 37.333 C 42.939 37.399 43.248 37.434 43.558 37.436 C 45.214 37.436 46.545 36.58 47.57 34.87 Z M 36.882 34.87 C 37.77 33.399 38.214 31.791 38.214 30.03 C 38.214 28.696 37.94 27.584 37.394 26.66 C 36.779 25.582 35.858 24.932 34.663 24.676 C 34.36 24.61 34.051 24.575 33.74 24.573 C 32.102 24.573 30.77 25.428 29.728 27.139 C 28.84 28.593 28.397 30.201 28.397 31.962 C 28.397 33.279 28.669 34.408 29.216 35.349 C 29.831 36.427 30.736 37.076 31.948 37.333 C 32.251 37.399 32.56 37.434 32.87 37.436 C 34.526 37.436 35.858 36.58 36.882 34.87 Z M 35.038 28.576 C 35.243 29.106 35.345 29.636 35.345 30.132 C 35.363 30.577 35.311 31.004 35.226 31.398 C 34.987 32.527 34.56 33.365 33.928 33.929 C 33.433 34.374 32.972 34.562 32.545 34.477 C 32.136 34.391 31.794 34.032 31.538 33.365 C 31.333 32.835 31.231 32.304 31.231 31.808 C 31.231 31.381 31.265 30.953 31.35 30.56 C 31.511 29.827 31.819 29.135 32.255 28.525 C 32.819 27.686 33.416 27.344 34.031 27.464 C 34.441 27.55 34.782 27.909 35.038 28.576 Z M 44.736 27.464 C 45.146 27.549 45.487 27.909 45.743 28.576 C 45.948 29.106 46.05 29.636 46.05 30.132 C 46.05 30.577 46.016 31.005 45.931 31.398 C 45.692 32.527 45.265 33.365 44.633 33.929 C 44.138 34.374 43.677 34.562 43.25 34.477 C 42.841 34.391 42.499 34.032 42.243 33.365 C 42.038 32.835 41.936 32.304 41.936 31.808 C 41.936 31.381 41.97 30.953 42.055 30.56 C 42.216 29.827 42.524 29.134 42.96 28.524 C 43.523 27.686 44.121 27.344 44.736 27.464 Z M 26.399 37.555 C 26.297 35.999 26.45 33.827 26.877 31.039 C 27.321 28.165 27.867 26.096 28.533 24.864 C 28.67 24.607 28.721 24.351 28.704 24.043 C 28.67 23.65 28.499 23.325 28.175 23.068 C 27.851 22.812 27.492 22.692 27.099 22.726 C 26.604 22.76 26.228 23 25.972 23.479 C 24.914 25.411 24.163 28.541 23.719 32.886 C 23.07 31.244 22.523 29.311 22.097 27.036 C 21.909 26.027 21.448 25.548 20.697 25.6 C 20.184 25.634 19.758 25.976 19.416 26.626 L 15.677 33.758 C 15.062 31.278 14.482 28.251 13.953 24.676 C 13.833 23.787 13.338 23.376 12.467 23.445 C 11.989 23.479 11.631 23.65 11.392 23.975 C 11.153 24.283 11.05 24.676 11.119 25.121 C 12.126 31.535 13.065 35.862 13.936 38.103 C 14.277 38.923 14.67 39.317 15.131 39.283 C 15.848 39.232 16.701 38.239 17.709 36.307 C 18.238 35.212 19.058 33.57 20.168 31.381 C 21.089 34.613 22.353 37.042 23.941 38.667 C 24.385 39.129 24.845 39.334 25.289 39.3 C 25.682 39.266 25.989 39.061 26.194 38.684 C 26.365 38.359 26.433 37.983 26.399 37.555 Z" fill="rgb(255,255,255)"></path></svg>